<svg xmlns="http://www.w3.org/2000/svg" viewBox="0 0 64 64">
<title>Marine phytoplankton — diatom cell</title>
<circle cx="32" cy="32" r="29" fill="#102d39"/>
<circle cx="32" cy="32" r="25" fill="#ddb45d" stroke="#79d6c1" stroke-width="4"/>
<circle cx="32" cy="32" r="19" fill="none" stroke="#80642b" stroke-width="2"/>
<g stroke="#80642b" stroke-width="2.5" stroke-linecap="round">
<path d="M32 14v7m0 22v7M14 32h7m22 0h7M19.3 19.3l5 5m15.4 15.4 5 5M19.3 44.7l5-5m15.4-15.4 5-5"/>
</g>
<g fill="#3c8976">
<ellipse cx="27" cy="27" rx="4" ry="6" transform="rotate(-40 27 27)"/>
<ellipse cx="37" cy="37" rx="4" ry="6" transform="rotate(-40 37 37)"/>
</g>
<circle cx="34" cy="29" r="3" fill="#fff2ba"/>
<g fill="#80642b">
<circle cx="23" cy="12" r="1.5"/><circle cx="41" cy="12" r="1.5"/>
<circle cx="12" cy="23" r="1.5"/><circle cx="52" cy="23" r="1.5"/>
<circle cx="12" cy="41" r="1.5"/><circle cx="52" cy="41" r="1.5"/>
<circle cx="23" cy="52" r="1.5"/><circle cx="41" cy="52" r="1.5"/>
</g>
</svg>
